<svg width="18" height="16" viewBox="0 0 18 16" fill="none" xmlns="http://www.w3.org/2000/svg">
<path d="M17.2716 9.87968C17.0484 9.7079 16.7885 9.58992 16.5123 9.5349C16.2361 9.47988 15.9509 9.4893 15.6789 9.56244L12.5415 10.2839C12.6144 9.97552 12.6167 9.6546 12.548 9.34521C12.4794 9.03582 12.3416 8.74598 12.145 8.49742C11.9484 8.24886 11.6982 8.04802 11.4129 7.90997C11.1277 7.77191 10.8149 7.70021 10.4981 7.70025H6.74426C6.42902 7.69946 6.11675 7.76115 5.82548 7.88177C5.53422 8.00238 5.26974 8.17953 5.04732 8.40297L3.35114 10.1002H1.19978C0.881579 10.1002 0.57641 10.2266 0.351407 10.4516C0.126405 10.6767 0 10.9819 0 11.3001V14.3C0 14.6183 0.126405 14.9235 0.351407 15.1485C0.57641 15.3736 0.881579 15.5 1.19978 15.5H8.99835C9.0474 15.5 9.09626 15.494 9.14382 15.482L13.9429 14.282C13.9737 14.2746 14.0039 14.2646 14.0329 14.252L16.9469 13.0116L16.9799 12.9966C17.26 12.8566 17.4999 12.6476 17.6769 12.3892C17.854 12.1309 17.9623 11.8317 17.9918 11.5199C18.0213 11.2081 17.9709 10.8939 17.8454 10.6069C17.72 10.32 17.5235 10.0697 17.2746 9.87968H17.2716ZM2.99945 14.3H1.19978V11.3001H2.99945V14.3ZM16.4542 11.9159L13.6048 13.1293L8.92336 14.3H4.19923V10.9484L5.89617 9.25195C6.00717 9.14004 6.13932 9.05131 6.28491 8.99092C6.43051 8.93054 6.58665 8.8997 6.74426 8.90021H10.4981C10.7367 8.90021 10.9656 8.99503 11.1344 9.1638C11.3031 9.33258 11.3979 9.56149 11.3979 9.80018C11.3979 10.0389 11.3031 10.2678 11.1344 10.4366C10.9656 10.6053 10.7367 10.7002 10.4981 10.7002H8.39846C8.23936 10.7002 8.08678 10.7634 7.97427 10.8759C7.86177 10.9884 7.79857 11.141 7.79857 11.3001C7.79857 11.4593 7.86177 11.6119 7.97427 11.7244C8.08678 11.8369 8.23936 11.9001 8.39846 11.9001H10.798C10.8432 11.9 10.8882 11.895 10.9322 11.8851L15.9563 10.7294L15.9796 10.7234C16.1329 10.6808 16.2966 10.6965 16.4392 10.7673C16.5817 10.8382 16.693 10.9593 16.7516 11.1073C16.8102 11.2553 16.8121 11.4197 16.7568 11.569C16.7014 11.7183 16.5929 11.8418 16.452 11.9159H16.4542ZM11.5734 3.92486C11.5176 3.86914 11.4734 3.80297 11.4432 3.73013C11.413 3.6573 11.3974 3.57922 11.3974 3.50038C11.3974 3.42153 11.413 3.34346 11.4432 3.27062C11.4734 3.19778 11.5176 3.13161 11.5734 3.07589L13.9729 0.675966C14.0287 0.620182 14.0948 0.575928 14.1676 0.545735C14.2405 0.515541 14.3185 0.5 14.3974 0.5C14.4762 0.5 14.5543 0.515541 14.6271 0.545735C14.6999 0.575928 14.7661 0.620182 14.8218 0.675966L17.2213 3.07589C17.2771 3.13164 17.3213 3.19781 17.3515 3.27065C17.3816 3.34348 17.3971 3.42154 17.3971 3.50038C17.3971 3.57921 17.3816 3.65727 17.3515 3.73011C17.3213 3.80294 17.2771 3.86912 17.2213 3.92486C17.1656 3.98061 17.0994 4.02483 17.0266 4.055C16.9538 4.08516 16.8757 4.10069 16.7969 4.10069C16.7181 4.10069 16.64 4.08516 16.5672 4.055C16.4944 4.02483 16.4282 3.98061 16.3725 3.92486L14.9973 2.54866V7.10027C14.9973 7.25939 14.934 7.412 14.8215 7.52452C14.709 7.63703 14.5565 7.70025 14.3974 7.70025C14.2383 7.70025 14.0857 7.63703 13.9732 7.52452C13.8607 7.412 13.7975 7.25939 13.7975 7.10027V2.54866L12.4222 3.92486C12.3665 3.98065 12.3003 4.0249 12.2275 4.0551C12.1547 4.08529 12.0766 4.10083 11.9978 4.10083C11.919 4.10083 11.8409 4.08529 11.7681 4.0551C11.6953 4.0249 11.6291 3.98065 11.5734 3.92486Z" fill="white"/>
</svg>
