<svg width="42" height="42" viewBox="0 0 42 42" fill="none" xmlns="http://www.w3.org/2000/svg">
<g clip-path="url(#clip0_115_2283)">
<path fill-rule="evenodd" clip-rule="evenodd" d="M19.2363 0.558242C17.6653 0.712092 16.2132 0.990383 14.9297 1.3836C11.9048 2.31031 9.15945 3.85418 6.91864 5.88867C4.97975 7.64906 3.41627 9.70801 2.2625 12.0205C1.84632 12.8546 1.80104 12.9561 1.50351 13.7226C0.766992 15.62 0.401338 17.176 0.158854 19.4443C0.133547 19.6812 0.112711 20.5117 0.112588 21.29L0.112383 22.705L0.18133 23.2793C0.267176 23.9938 0.358723 24.6513 0.409828 24.9199C0.56577 25.7397 0.746074 26.5096 0.923754 27.1142C0.960217 27.2383 1.00513 27.3952 1.0235 27.4629C1.10496 27.7625 1.59871 29.0776 1.76265 29.4316C1.80444 29.5218 1.8795 29.688 1.92942 29.8007C2.25434 30.535 2.84997 31.6276 3.28933 32.2954C3.42025 32.4943 3.52734 32.6658 3.52734 32.6765C3.52734 32.6871 3.59777 32.792 3.68382 32.9094C3.76987 33.0269 3.95809 33.2891 4.1021 33.4921C4.24606 33.6952 4.37469 33.8705 4.38789 33.8818C4.40114 33.8931 4.48461 33.9946 4.57341 34.1074C4.66216 34.2202 4.79998 34.3873 4.87963 34.4788C4.95924 34.5703 5.12593 34.764 5.25 34.9093C5.61713 35.3392 6.60626 36.3506 6.99316 36.6917C7.33331 36.9915 7.97278 37.515 8.26465 37.7326C8.44512 37.8671 8.63892 38.0126 8.69531 38.0558C8.95699 38.2566 9.77841 38.7988 10.2478 39.0806C10.8451 39.4392 12.3351 40.2031 12.8174 40.3981C12.9979 40.471 13.1917 40.5506 13.248 40.575C13.3044 40.5994 13.3875 40.6351 13.4326 40.6545C13.7161 40.7759 14.766 41.1266 15.3193 41.2845C15.4547 41.3232 15.6208 41.3708 15.6885 41.3902C15.7562 41.4096 15.9315 41.4535 16.0781 41.4877C16.3322 41.5468 16.5308 41.5896 17.2266 41.7348C17.6937 41.8323 18.6115 41.9513 19.2979 42.0035C19.6362 42.0292 19.9961 42.0651 20.0977 42.0832C20.1992 42.1014 15.7187 42.1184 10.1411 42.1211L0 42.1259V42.2695V42.4131L21.0103 42.4028L42.0205 42.3925L42.0326 42.249L42.0447 42.1054L31.8812 42.1109L21.7178 42.1164L22.2715 42.062C23.6625 41.9255 24.1352 41.8623 24.8965 41.7113C26.8227 41.329 28.3578 40.8149 30.085 39.9734C34.2911 37.9243 37.6667 34.5923 39.7465 30.4365C40.8813 28.1688 41.5371 25.8814 41.8218 23.1972L41.8914 22.541L41.8932 21.249C41.8952 19.8119 41.8484 19.2144 41.6291 17.8857C41.4883 17.032 41.434 16.7644 41.284 16.1836C40.4709 13.036 39.0191 10.2512 36.8792 7.73434C36.1169 6.83769 34.6514 5.45506 33.8101 4.83884C33.6787 4.74261 33.5621 4.65136 33.5508 4.63602C33.4891 4.55222 31.5504 3.28414 31.4839 3.28414C31.4767 3.28414 31.3158 3.19583 31.1265 3.08796C30.6282 2.80397 29.818 2.41157 29.2031 2.15646C29.0565 2.09563 28.8812 2.02188 28.8135 1.99256C28.1213 1.69282 26.7197 1.24513 25.9219 1.06897C25.8429 1.05154 25.6399 1.00663 25.4707 0.969096C24.0756 0.659879 22.8767 0.533387 21.1641 0.514602L19.8311 0.5L19.2363 0.558242ZM20.3232 1.34394C19.8776 1.3633 18.5917 1.4756 18.2725 1.52305C16.829 1.73756 15.7244 1.99207 14.6119 2.36633C11.6283 3.37019 9.01134 4.98141 6.82652 7.15963C5.93545 8.04798 5.50179 8.53865 4.97602 9.25339C4.10685 10.4349 3.65745 11.1475 3.11444 12.205C2.80042 12.8166 2.35175 13.8121 2.25483 14.1123C2.23662 14.1687 2.15463 14.3994 2.0726 14.625C1.49814 16.2047 1.15143 17.8923 0.981463 19.9365C0.891311 21.0204 0.970389 23.016 1.15008 24.192C1.17333 24.3442 1.20955 24.5803 1.23055 24.7167C1.26152 24.9174 1.45946 25.8044 1.58255 26.2939C1.67114 26.6461 2.00817 27.7002 2.23982 28.3496C2.3844 28.7548 2.82881 29.7424 3.10513 30.2724C4.5536 33.051 6.51304 35.357 9.02126 37.235C9.46009 37.5636 10.3384 38.1558 10.6641 38.3428C10.743 38.3881 10.9922 38.531 11.2178 38.6603C11.726 38.9516 12.6146 39.393 13.1045 39.5975C13.6026 39.8055 13.6115 39.8091 13.8223 39.8906C13.9238 39.9298 14.0437 39.978 14.0889 39.9976C14.3314 40.103 15.4858 40.4615 16.0484 40.6061C17.6979 41.0302 19.265 41.223 21.066 41.2234C23.4585 41.2239 25.6554 40.8306 27.8906 40.0018C30.5963 38.9985 33.0522 37.4316 35.1111 35.3951C36.2625 34.2561 37.1344 33.1727 38.0286 31.7695C38.4092 31.1722 38.5803 30.864 39.0189 29.9853C39.5042 29.013 39.8328 28.2042 40.135 27.2383C40.2328 26.9256 40.5328 25.8019 40.5788 25.5761C40.5925 25.5085 40.6315 25.3257 40.6653 25.1701C40.7833 24.627 40.8619 24.0758 40.9729 23.0127C40.9953 22.7984 41.0255 22.1893 41.04 21.6591L41.0664 20.6953L40.9973 19.875C40.8803 18.4846 40.6856 17.2712 40.4249 16.3066C40.0595 14.9548 39.9186 14.5418 39.3966 13.292C39.2345 12.9039 38.6766 11.7976 38.4789 11.472C38.3852 11.3179 38.3086 11.1859 38.3086 11.1787C38.3086 11.1427 37.6159 10.0757 37.4305 9.82613C36.8084 8.9888 36.617 8.73483 36.573 8.68815C36.5463 8.65985 36.423 8.51671 36.299 8.37008C35.6998 7.66116 34.8555 6.80915 34.1847 6.23628C32.5557 4.84511 30.8851 3.8057 28.8955 2.94552C27.947 2.5354 26.3753 2.02406 25.5322 1.8513C24.2833 1.59532 23.9718 1.5445 23.0098 1.43967C22.5449 1.38905 21.1052 1.31301 20.8154 1.3238C20.7026 1.32802 20.4812 1.33709 20.3232 1.34394ZM29.0801 9.17825C29.0011 9.18695 28.8442 9.22271 28.7314 9.25778C27.8748 9.52418 27.1878 10.1705 26.8847 10.9951L26.7716 11.3027L26.7693 11.8564L26.7668 12.4101L26.8795 12.7301C27.0527 13.2225 27.2229 13.4977 27.5502 13.8145C28.0334 14.2823 28.6101 14.5389 29.2852 14.5864C29.7317 14.6178 30.0932 14.5629 30.4921 14.4032C31.3179 14.0725 31.8862 13.4549 32.1373 12.6152L32.2109 12.3691L32.2097 11.8564L32.2085 11.3437L32.0791 10.9955C31.6105 9.73426 30.4455 9.02834 29.0801 9.17825ZM28.2051 10.3662C28.19 10.3812 28.1777 10.5161 28.1777 10.666C28.1777 10.9536 28.1306 11.0605 27.9932 11.0845L27.9111 11.0987V11.3027V11.5067L27.9932 11.5219C28.1426 11.5497 28.1777 11.6136 28.1777 11.8581C28.1777 12.1727 28.1532 12.2255 28.0072 12.2255H27.8865L27.8988 12.4614L27.9111 12.6972L28.0226 12.7101L28.134 12.7229L28.1559 12.8536C28.1679 12.9255 28.1824 13.0858 28.188 13.2099L28.1982 13.4355L28.4443 13.4248C28.5797 13.4189 28.7135 13.4056 28.7417 13.3953C28.7769 13.3824 28.793 13.2733 28.793 13.0471C28.793 12.857 28.8103 12.7164 28.834 12.7145C28.8565 12.7127 29.0042 12.7113 29.1621 12.7113C29.32 12.7113 29.4643 12.7127 29.4828 12.7145C29.5013 12.7163 29.6241 12.8746 29.7556 13.0664L29.9949 13.415H30.293H30.5911L30.6181 13.2924C30.6329 13.2249 30.6418 13.1003 30.6379 13.0155C30.634 12.9307 30.6325 12.829 30.6347 12.7895L30.6387 12.7177H30.7772C30.9577 12.7177 31.0157 12.6411 31.0001 12.4234L30.9873 12.2461L30.8232 12.2255L30.6592 12.205L30.6472 11.8899L30.6353 11.5748L30.8113 11.54L30.9873 11.5052V11.3014V11.0976L30.8232 11.0771L30.6592 11.0566L30.647 10.7508C30.6402 10.5826 30.6149 10.4211 30.5907 10.3919C30.5639 10.3597 30.4537 10.3388 30.3105 10.3388C30.0318 10.3388 29.9614 10.3958 30.0034 10.587C30.0189 10.6577 30.0193 10.7976 30.0043 10.8979L29.9769 11.0802L29.6251 11.0684L29.2732 11.0566L29.0699 10.7285C28.958 10.548 28.8453 10.3868 28.8195 10.3702C28.7606 10.3325 28.2422 10.3291 28.2051 10.3662ZM29.6242 11.5539L29.5735 11.5757L29.6401 11.7058C29.7613 11.9422 29.9459 12.1866 29.985 12.1625C30.0302 12.1345 30.0359 11.6935 29.9919 11.6243C29.9575 11.5702 29.7006 11.5211 29.6242 11.5539ZM28.793 11.9135V12.1758L28.8579 12.2007C28.9579 12.239 29.1134 12.2301 29.1416 12.1844C29.17 12.1386 28.8834 11.6513 28.8282 11.6513C28.8088 11.6513 28.793 11.7693 28.793 11.9135ZM23.9531 13.2469C23.5809 13.3307 23.226 13.4123 23.1643 13.4282C22.9614 13.4807 22.8637 13.7976 22.9934 13.9827C23.0996 14.1344 23.2243 14.1588 23.5464 14.091C23.8997 14.0167 23.9263 14.0162 23.9003 14.084C23.8889 14.1136 23.4933 14.6812 23.021 15.3453C22.1616 16.554 21.3106 17.7655 20.7774 18.5396C20.6211 18.7665 20.4883 18.9521 20.4823 18.9521C20.4764 18.9521 20.2997 18.8966 20.0897 18.8288C19.5689 18.6606 19.4246 18.6151 18.7852 18.4178C18.4806 18.3238 18.1484 18.2195 18.0469 18.186C17.2578 17.9256 16.5288 17.7136 16.4223 17.7135L16.2949 17.7134L15.8071 18.0728C15.5389 18.2704 15.1532 18.5552 14.9502 18.7055C14.5625 18.9928 13.9707 19.4285 13.4531 19.8079C13.2839 19.9319 13.0367 20.115 12.9038 20.2147C12.7708 20.3144 12.3279 20.6372 11.9194 20.932C10.7887 21.7482 10.2199 22.1847 10.1731 22.272C10.1257 22.3607 10.1179 22.5211 10.1563 22.6212C10.1875 22.7025 10.3824 22.8076 10.5019 22.8076C10.6101 22.8076 10.5424 22.8552 12.5977 21.3355C12.8604 21.1413 13.2757 20.8355 13.5206 20.656C13.7655 20.4765 14.1796 20.1719 14.441 19.9792C16.1447 18.723 16.4239 18.5182 16.471 18.4903C16.4999 18.4731 16.5664 18.4762 16.6187 18.4972C16.671 18.5182 17.0738 18.6488 17.5137 18.7874C17.9536 18.9261 18.3596 19.0558 18.416 19.0756C18.4724 19.0955 18.7677 19.1878 19.0723 19.2808C19.3768 19.3738 19.829 19.5132 20.0771 19.5907C20.3253 19.6681 20.5909 19.7314 20.6674 19.7314L20.8065 19.7314L20.9251 19.5981C20.9903 19.5248 21.3353 19.0403 21.6919 18.5214C22.0483 18.0026 22.5784 17.2413 22.8697 16.8296C23.161 16.4179 23.6301 15.7489 23.9121 15.3428C24.1941 14.9368 24.4479 14.6045 24.4761 14.6045C24.509 14.6045 24.5274 14.6668 24.5276 14.7788C24.5279 15.0288 24.5986 15.2485 24.7021 15.321C24.8397 15.4174 25.0477 15.4003 25.1649 15.2831L25.2656 15.1824L25.2636 14.8832C25.2625 14.7186 25.2376 14.2901 25.2083 13.9309L25.155 13.2779L25.044 13.1824C24.8957 13.0548 24.7736 13.0621 23.9531 13.2469ZM28.875 16.0234C28.0332 16.097 27.1466 16.4178 26.6555 16.8265C25.901 17.4543 26.1192 18.2915 27.1715 18.8063C27.7633 19.0959 28.1565 19.2017 28.9365 19.2815C29.4231 19.3313 29.8991 19.3109 30.5156 19.2139C31.5439 19.0521 32.3926 18.589 32.666 18.0403C32.8011 17.7693 32.8015 17.5518 32.6675 17.2829C32.4161 16.7784 31.8078 16.3924 30.9053 16.1646L30.4131 16.0403L29.7363 16.0238C29.3641 16.0147 28.9765 16.0146 28.875 16.0234ZM26.327 19.27L26.2319 19.4238L26.2313 19.7519L26.2306 20.08L26.2995 20.2031C26.459 20.4881 26.7801 20.7575 27.1934 20.953C27.5586 21.1258 27.701 21.1704 28.4238 21.3382C28.7335 21.4101 30.1148 21.4094 30.5156 21.3371C32.1604 21.0405 33.0788 20.2002 32.6653 19.3703C32.5442 19.1273 32.4887 19.1115 32.2724 19.2584C31.9325 19.4894 31.2866 19.7246 30.6797 19.8384C30.4879 19.8743 30.004 19.9134 29.6042 19.9252L28.8774 19.9466L28.4763 19.8756C27.6272 19.7253 27.0635 19.529 26.6323 19.2336C26.538 19.169 26.4521 19.1162 26.4415 19.1162C26.4309 19.1162 26.3794 19.1854 26.327 19.27ZM26.3122 21.4527L26.209 21.6564V21.88C26.209 22.287 26.424 22.6187 26.8697 22.8995C27.5362 23.3193 28.2152 23.4969 29.2923 23.5332C30.2511 23.5654 30.8855 23.4636 31.5595 23.1692C31.8887 23.0255 32.3389 22.7433 32.471 22.598C32.6327 22.4204 32.7715 22.0906 32.7715 21.8843C32.7715 21.6574 32.5943 21.29 32.4849 21.29C32.4472 21.29 32.3347 21.3441 32.2348 21.4103C32.0497 21.5329 31.5129 21.7639 31.2539 21.8323C30.6569 21.99 30.3637 22.0325 29.7158 22.0554L29.0186 22.0799L28.5469 22.0103C27.7427 21.8915 26.9559 21.6172 26.5828 21.3255C26.529 21.2834 26.4694 21.249 26.4502 21.249C26.4311 21.249 26.369 21.3407 26.3122 21.4527ZM20.1387 21.8247C19.6334 21.8868 19.1722 22.0038 18.8369 22.155C18.7412 22.1981 18.6514 22.2334 18.6372 22.2334C18.5671 22.2334 18.1105 22.5457 17.9439 22.7076C17.4975 23.1415 17.4748 23.7247 17.8872 24.1666C18.0817 24.375 18.4777 24.6203 18.8549 24.766C19.5356 25.0291 19.8787 25.084 20.8359 25.0835C21.5862 25.083 21.8642 25.0544 22.251 24.9382C22.9905 24.7158 23.3932 24.5125 23.7127 24.1999L23.9464 23.9711L24.0158 23.7325C24.0948 23.4607 24.0786 23.2862 23.9514 23.0391C23.6764 22.5048 22.886 22.0535 21.9274 21.8834C21.5005 21.8077 20.5351 21.776 20.1387 21.8247ZM26.2961 23.5842C26.1169 24.0008 26.2073 24.4368 26.5423 24.7719C26.6993 24.9289 27.2121 25.2685 27.2921 25.2685C27.3099 25.2685 27.3827 25.2945 27.4538 25.3263C27.6994 25.4362 28.1178 25.5488 28.5404 25.6187L28.9645 25.689L29.6478 25.6673C30.0236 25.6554 30.4695 25.6166 30.6387 25.5811C31.9243 25.311 32.7681 24.692 32.7702 24.0175C32.7707 23.8559 32.6156 23.458 32.532 23.4064C32.5083 23.3918 32.3901 23.4431 32.2692 23.5204C31.593 23.953 30.5444 24.2026 29.4082 24.2015C28.3288 24.2003 27.3011 23.9348 26.6481 23.4882C26.5625 23.4297 26.4679 23.3818 26.4378 23.3818C26.4077 23.3818 26.344 23.4729 26.2961 23.5842ZM11.4229 24.1483C10.1883 24.3083 9.25739 24.7856 8.95814 25.4121C8.7447 25.8589 8.90256 26.3087 9.4057 26.6869C10.0469 27.1689 11.0019 27.4244 12.1406 27.4186C13.0241 27.4141 13.4381 27.3348 14.1961 27.025C14.8253 26.7678 15.2344 26.3877 15.3471 25.9555L15.3979 25.7607L15.3466 25.569C15.1617 24.8776 14.1937 24.3259 12.88 24.1631C12.5513 24.1224 11.6903 24.1136 11.4229 24.1483ZM23.471 25.247C23.1699 25.4237 22.4387 25.6816 22.0254 25.7569C20.7032 25.9979 19.2641 25.8238 18.2555 25.301C18.0432 25.1909 17.8456 25.1099 17.8165 25.1211C17.7114 25.1615 17.5957 25.4638 17.5957 25.698C17.5957 26.0111 17.7168 26.2481 18.0144 26.5174C18.4399 26.9025 19.0196 27.1377 19.9416 27.2994L20.3392 27.3692L20.967 27.3503C22.151 27.3146 23.1117 27.0132 23.6568 26.5063C24.0057 26.182 24.1454 25.7901 24.0343 25.4477C23.9793 25.2785 23.8428 25.0605 23.7965 25.0679C23.7811 25.0705 23.6347 25.151 23.471 25.247ZM26.3259 25.6681L26.2311 25.8216L26.2165 26.0885L26.2019 26.3554L26.2824 26.54C26.514 27.0712 27.22 27.4731 28.3418 27.7125L28.6904 27.7869L29.4492 27.7861L30.208 27.7853L30.5566 27.7167C31.4393 27.543 32.0356 27.2765 32.4219 26.8831C32.6164 26.685 32.7705 26.3638 32.7711 26.1555C32.7715 25.9875 32.5829 25.5146 32.5155 25.5146C32.4936 25.5146 32.3993 25.5659 32.3058 25.6286C31.1375 26.412 28.8296 26.5705 27.3258 25.9705C27.0354 25.8547 26.7024 25.6846 26.5828 25.5911C26.4501 25.4873 26.4348 25.4918 26.3259 25.6681ZM17.7163 27.4667C17.6543 27.5671 17.6188 27.7037 17.6052 27.8941L17.5852 28.1739L17.6732 28.3516C17.7863 28.5799 17.8944 28.6998 18.1713 28.9044C19.1125 29.5996 20.9389 29.8112 22.415 29.3962C23.0435 29.2194 23.6866 28.8334 23.8905 28.5106C23.9473 28.4204 24.0162 28.2631 24.0436 28.1611L24.0932 27.9755L24.0427 27.7807C23.9858 27.5613 23.869 27.3193 23.8199 27.3193C23.8021 27.3193 23.7186 27.3625 23.6344 27.4153C22.6254 28.0487 20.8019 28.2941 19.474 27.9752C18.8491 27.8251 18.3004 27.6111 18.0093 27.4037C17.8492 27.2898 17.8221 27.2956 17.7163 27.4667ZM8.97336 27.5962C8.92578 27.7033 8.87853 27.8769 8.86828 27.9818L8.8497 28.1726L8.95301 28.392C9.203 28.9226 9.70483 29.2424 10.7461 29.5346C10.825 29.5567 11.0858 29.6026 11.3256 29.6366C12.9496 29.8663 14.7434 29.3348 15.2476 28.4744L15.3591 28.2841L15.3597 28.0376L15.3604 27.791L15.2644 27.5962C15.2116 27.489 15.141 27.4013 15.1075 27.4013C15.074 27.4013 14.9233 27.4731 14.7728 27.5609C14.4252 27.7635 13.899 27.949 13.3384 28.0668L12.8994 28.159L12.0791 28.1571L11.2588 28.1553L10.8486 28.0647C10.1937 27.92 9.59146 27.691 9.25013 27.4568C9.11667 27.3653 9.06408 27.3917 8.97336 27.5962ZM26.3314 27.792C26.2778 27.8787 26.2331 28.0347 26.2199 28.1814L26.1976 28.4262L26.2687 28.6123C26.4962 29.208 27.4403 29.7014 28.6699 29.8671C29.1018 29.9253 30.3523 29.8872 30.7002 29.8051C31.9837 29.5026 32.7725 28.9194 32.7711 28.2743C32.7706 28.0633 32.6375 27.7477 32.5176 27.6734L32.4482 27.6304L32.374 27.6961C32.2499 27.8062 31.7358 28.051 31.3952 28.1622C30.9781 28.2983 30.5951 28.3702 29.9557 28.4321L29.4375 28.4824L28.8999 28.4309C28.3291 28.3762 28.201 28.3522 27.6361 28.1939C27.2817 28.0945 26.7812 27.874 26.572 27.7251C26.512 27.6824 26.4534 27.6474 26.4418 27.6474C26.4302 27.6474 26.3806 27.7125 26.3314 27.792ZM17.7508 29.6674C17.356 30.2802 17.7198 30.9987 18.6378 31.4191C19.2657 31.7067 19.9685 31.8415 20.823 31.8382C21.7167 31.8347 22.2271 31.7441 22.8709 31.4746C23.8931 31.0467 24.2803 30.4355 23.9549 29.7635C23.9048 29.6599 23.8448 29.5752 23.8215 29.5752C23.7983 29.5752 23.6754 29.6374 23.5483 29.7135C23.0754 29.9967 22.305 30.2338 21.5797 30.3194C21.027 30.3846 19.9653 30.3422 19.5234 30.2373C19.0328 30.1208 18.6896 30.0239 18.6416 29.9884C18.619 29.9717 18.536 29.9327 18.457 29.9018C18.3781 29.8709 18.2088 29.7847 18.081 29.7104C17.9531 29.636 17.8399 29.5752 17.8294 29.5752C17.8188 29.5752 17.7835 29.6167 17.7508 29.6674ZM14.8682 29.7654C14.5813 29.9391 13.8652 30.2043 13.4476 30.2913C11.9586 30.6018 10.426 30.3914 9.23746 29.7135L9.10284 29.6367L9.02623 29.7368C8.83755 29.9837 8.81483 30.3186 8.96487 30.6409C9.2918 31.3433 10.4404 31.8332 11.915 31.8993C13.4288 31.9671 14.8609 31.4399 15.2701 30.6642L15.3577 30.498L15.3568 30.2308L15.356 29.9637L15.2583 29.7899C15.2046 29.6943 15.1502 29.6162 15.1375 29.6163C15.1247 29.6163 15.0035 29.6834 14.8682 29.7654ZM26.3296 29.8867C26.268 29.9863 26.2321 30.1234 26.2188 30.3093L26.1991 30.5845L26.2899 30.7624C26.3398 30.8603 26.464 31.0294 26.5658 31.1382L26.7509 31.3361L27.1669 31.5426C28.0874 31.9993 29.4316 32.1523 30.5915 31.9323C31.8556 31.6925 32.7715 31.0386 32.7715 30.3759C32.7715 30.1882 32.6488 29.8656 32.5444 29.779L32.4884 29.7325L32.3062 29.8578C31.8823 30.1495 31.0657 30.423 30.3236 30.5219C29.8631 30.5832 28.6807 30.5481 28.2449 30.4602C27.5966 30.3293 26.9939 30.106 26.6494 29.869C26.5457 29.7976 26.4518 29.7392 26.4408 29.7392C26.4298 29.7392 26.3797 29.8056 26.3296 29.8867ZM0.0103359 42.2695C0.0107871 42.3597 0.0191953 42.3918 0.028998 42.3408C0.0388008 42.2898 0.0384316 42.2159 0.0281777 42.1767C0.0179238 42.1375 0.00988477 42.1793 0.0103359 42.2695Z" fill="#00700D"/>
</g>
<defs>
<clipPath id="clip0_115_2283">
<rect width="42" height="42" fill="white"/>
</clipPath>
</defs>
</svg>
